# xmcd
#
# Track frame offsets:
#	150
#	22514
#	41756
#	63719
#	79624
#	101377
#	117469
#	130907
#	155573
#	181564
#	201905
#
# Disc length: 2887 seconds
# Revision: 0
# Processed by: cddbd v1.5.2PL0 Copyright (c) Steve Scherf et al.
# Submitted via: dBpowerAMP V12.0
#
DISCID=870b450b
DTITLE=A Band Named Trevor - Smoke Dog Music
DYEAR=2014
DGENRE=Blues
TTITLE0=Mr Fabulous Guitar 
TTITLE1=21st Century 
TTITLE2=Smoke Dog Music
TTITLE3=Shake
TTITLE4=The Sorrow Hotel 
TTITLE5=Bad 
TTITLE6=A Band Named Trevor
TTITLE7=Angel Of Montgomery
TTITLE8=Baby Blues 
TTITLE9=Home Scott Free 
TTITLE10=The Life And Times Of  Walter White 
EXTD=
EXTT0=
EXTT1=
EXTT2=
EXTT3=
EXTT4=
EXTT5=
EXTT6=
EXTT7=
EXTT8=
EXTT9=
EXTT10=
PLAYORDER=
